<svg width="960" height="240" viewBox="0 0 960 240" fill="none" xmlns="http://www.w3.org/2000/svg" role="img" aria-labelledby="title desc">
  <title id="title">Signal Harbor logo</title>
  <desc id="desc">Service reliability risk analytics platform — Java and Python, Kubernetes-ready.</desc>
  <rect width="960" height="240" rx="28" fill="#101820"/>
  <rect x="26" y="26" width="908" height="188" rx="22" fill="#14232B" stroke="#2F4752" stroke-width="2"/>
  <g transform="translate(64 48)">
    <rect x="0" y="0" width="144" height="144" rx="28" fill="#E9F3F0"/>
    <path d="M72 22L118 42V74C118 103 99 125 72 134C45 125 26 103 26 74V42L72 22Z" fill="#16697A"/>
    <path d="M48 88H59V62H48V88ZM67 88H78V47H67V88ZM86 88H97V69H86V88Z" fill="#F8D66D"/>
    <path d="M42 103H102" stroke="#101820" stroke-width="8" stroke-linecap="round"/>
    <circle cx="72" cy="72" r="54" stroke="#101820" stroke-width="5" opacity="0.16"/>
  </g>
  <text x="244" y="100" fill="#F7FAF9" font-family="Inter, Arial, sans-serif" font-size="52" font-weight="800" letter-spacing="0">Signal Harbor</text>
  <text x="248" y="144" fill="#B8C8C4" font-family="Inter, Arial, sans-serif" font-size="21" font-weight="500" letter-spacing="0">Service reliability risk analytics · Java + Python · Kubernetes-ready</text>
  <g transform="translate(248 168)" fill="none" font-family="Inter, Arial, sans-serif" font-size="17" font-weight="700">
    <rect width="90" height="34" rx="17" fill="#F8D66D"/>
    <text x="16" y="23" fill="#101820">Java 17</text>
    <rect x="104" width="110" height="34" rx="17" fill="#C9B8F0"/>
    <text x="118" y="23" fill="#101820">Python 3.12</text>
    <rect x="228" width="126" height="34" rx="17" fill="#A7D8DE"/>
    <text x="244" y="23" fill="#101820">Spring Boot</text>
    <rect x="368" width="96" height="34" rx="17" fill="#7ECDC4"/>
    <text x="382" y="23" fill="#101820">FastAPI</text>
    <rect x="478" width="128" height="34" rx="17" fill="#F0B67F"/>
    <text x="494" y="23" fill="#101820">Kubernetes</text>
  </g>
</svg>
